<?xml version="1.0" encoding="UTF-8"?>
<svg width="1920" height="1080" version="1.1" viewBox="0 0 1920 1080" xmlns="http://www.w3.org/2000/svg">
  <defs>
    <linearGradient id="wave-gradient" x1="0%" y1="0%" x2="100%" y2="0%">
      <stop offset="0%" style="stop-color:#0066ff;stop-opacity:0.8"/>
      <stop offset="50%" style="stop-color:#00ccff;stop-opacity:0.6"/>
      <stop offset="100%" style="stop-color:#0066ff;stop-opacity:0.8"/>
    </linearGradient>
  </defs>
  <g opacity="0.6">
    <path d="M0,200 
             C320,180 480,150 640,150
             C800,150 960,200 1120,200
             C1280,200 1440,150 1600,150
             C1760,150 1920,180 1920,200
             L1920,1080 L0,1080 Z" 
          fill="url(#wave-gradient)">
      <animate attributeName="d" 
               dur="8s" 
               repeatCount="indefinite"
               values="
                 M0,200 C320,180 480,150 640,150 C800,150 960,200 1120,200 C1280,200 1440,150 1600,150 C1760,150 1920,180 1920,200 L1920,1080 L0,1080 Z;
                 M0,180 C320,210 480,180 640,180 C800,180 960,180 1120,180 C1280,180 1440,180 1600,180 C1760,180 1920,210 1920,180 L1920,1080 L0,1080 Z;
                 M0,200 C320,180 480,150 640,150 C800,150 960,200 1120,200 C1280,200 1440,150 1600,150 C1760,150 1920,180 1920,200 L1920,1080 L0,1080 Z"
      />
    </path>
    <path d="M0,400 
             C320,380 480,350 640,350
             C800,350 960,400 1120,400
             C1280,400 1440,350 1600,350
             C1760,350 1920,380 1920,400
             L1920,1080 L0,1080 Z" 
          fill="url(#wave-gradient)"
          opacity="0.8">
      <animate attributeName="d" 
               dur="12s" 
               repeatCount="indefinite"
               values="
                 M0,400 C320,380 480,350 640,350 C800,350 960,400 1120,400 C1280,400 1440,350 1600,350 C1760,350 1920,380 1920,400 L1920,1080 L0,1080 Z;
                 M0,380 C320,410 480,380 640,380 C800,380 960,380 1120,380 C1280,380 1440,380 1600,380 C1760,380 1920,410 1920,380 L1920,1080 L0,1080 Z;
                 M0,400 C320,380 480,350 640,350 C800,350 960,400 1120,400 C1280,400 1440,350 1600,350 C1760,350 1920,380 1920,400 L1920,1080 L0,1080 Z"
      />
    </path>
    <path d="M0,600 
             C320,580 480,550 640,550
             C800,550 960,600 1120,600
             C1280,600 1440,550 1600,550
             C1760,550 1920,580 1920,600
             L1920,1080 L0,1080 Z" 
          fill="url(#wave-gradient)"
          opacity="0.6">
      <animate attributeName="d" 
               dur="10s" 
               repeatCount="indefinite"
               values="
                 M0,600 C320,580 480,550 640,550 C800,550 960,600 1120,600 C1280,600 1440,550 1600,550 C1760,550 1920,580 1920,600 L1920,1080 L0,1080 Z;
                 M0,580 C320,610 480,580 640,580 C800,580 960,580 1120,580 C1280,580 1440,580 1600,580 C1760,580 1920,610 1920,580 L1920,1080 L0,1080 Z;
                 M0,600 C320,580 480,550 640,550 C800,550 960,600 1120,600 C1280,600 1440,550 1600,550 C1760,550 1920,580 1920,600 L1920,1080 L0,1080 Z"
      />
    </path>
  </g>
</svg> 